<svg width="676" height="768" viewBox="0 0 676 768" fill="none" xmlns="http://www.w3.org/2000/svg">
<mask id="mask0_2045_9" style="mask-type:alpha" maskUnits="userSpaceOnUse" x="0" y="0" width="676" height="768">
<rect width="676" height="768" fill="#C4C4C4"/>
</mask>
<g mask="url(#mask0_2045_9)">
<path d="M175.419 60.5422C175.419 48.9917 173.15 37.5539 168.742 26.8829C164.334 16.212 157.873 6.51567 149.729 -1.652C141.584 -9.81967 131.915 -16.2986 121.274 -20.7193C110.633 -25.1395 99.2273 -27.4146 87.7093 -27.4146C76.1913 -27.4146 64.7856 -25.1395 54.1447 -20.7193C43.5038 -16.2986 33.8347 -9.81967 25.6901 -1.652C17.5454 6.51567 11.0847 16.212 6.67643 26.8829C2.26816 37.5539 0 48.9917 0 60.5422H87.7093H175.419Z" fill="#94C0D4"/>
<path d="M193.008 274.967C181.458 274.967 170.022 272.692 159.352 268.271C148.682 263.851 138.987 257.372 130.82 249.204C122.653 241.036 116.175 231.34 111.755 220.669C107.335 209.998 105.061 198.56 105.061 187.01H193.008V274.967Z" fill="#161616"/>
<path d="M0 80.9863C11.5492 80.9863 22.9858 83.2609 33.6556 87.6816C44.3253 92.1023 54.0206 98.5812 62.1873 106.749C70.3541 114.917 76.8323 124.613 81.2525 135.284C85.6727 145.955 87.947 157.393 87.947 168.943H0V80.9863Z" fill="#F45B0F"/>
<path d="M0 230.988C0 206.7 19.6878 187.01 43.9735 187.01H87.947V274.967H43.9735C19.6878 274.967 0 255.277 0 230.988Z" fill="#FFD726"/>
<path d="M105.061 125.44C105.061 149.728 124.748 169.418 149.034 169.418H193.008V81.4614H149.034C124.748 81.4614 105.061 101.151 105.061 125.44Z" fill="#048ECB"/>
<path d="M491.077 98.5776C491.077 110.128 488.803 121.566 484.383 132.237C479.963 142.909 473.484 152.605 465.318 160.772C457.151 168.94 447.456 175.419 436.786 179.839C426.116 184.259 414.68 186.534 403.13 186.534V98.5776H491.077Z" fill="#FFD726"/>
<path d="M210.122 186.059C215.866 186.059 221.553 187.197 226.859 189.407C232.165 191.617 236.987 194.856 241.048 198.94C245.109 203.024 248.331 207.872 250.529 213.208C252.727 218.543 253.858 224.262 253.858 230.037C253.858 235.813 252.727 241.531 250.529 246.867C248.331 252.203 245.109 257.051 241.048 261.135C236.987 265.219 232.165 268.458 226.859 270.668C221.553 272.878 215.866 274.016 210.122 274.016V186.059Z" fill="#94C0D4"/>
<path d="M386.016 274.016C374.467 274.016 363.031 271.747 352.36 267.339C341.69 262.93 331.995 256.469 323.828 248.323C315.662 240.178 309.184 230.508 304.764 219.865C300.344 209.223 298.069 197.816 298.069 186.297C298.069 174.777 300.344 163.371 304.764 152.728C309.184 142.086 315.662 132.415 323.828 124.27C331.995 116.124 341.69 109.663 352.36 105.255C363.031 100.847 374.467 98.5776 386.016 98.5776V274.016Z" fill="#94C0D4"/>
<path d="M596.613 274.016C596.613 262.465 598.881 251.028 603.289 240.356C607.698 229.685 614.158 219.989 622.303 211.821C630.448 203.653 640.117 197.175 650.758 192.754C661.398 188.334 672.804 186.059 684.322 186.059C695.84 186.059 707.246 188.334 717.887 192.754C728.528 197.175 738.197 203.653 746.341 211.821C754.486 219.989 760.947 229.685 765.355 240.356C769.763 251.028 772.031 262.465 772.031 274.016H596.613Z" fill="#048ECB"/>
<path d="M579.024 80.5108C567.475 80.5108 556.038 78.2424 545.369 73.8337C534.699 69.4249 525.004 62.9635 516.837 54.8179C508.67 46.6724 502.192 37.0022 497.772 26.3601C493.351 15.7181 491.077 4.31107 491.077 -7.2082C491.077 -18.7275 493.351 -30.1345 497.772 -40.7765C502.192 -51.4186 508.67 -61.0887 516.837 -69.2343C525.004 -77.3799 534.699 -83.8413 545.369 -88.2501C556.038 -92.6588 567.475 -94.9272 579.024 -94.9272V80.5108Z" fill="#94C0D4"/>
<path d="M210.122 80.5108V-94.9272C221.671 -94.9272 233.108 -92.6588 243.778 -88.2501C254.448 -83.8413 264.143 -77.3799 272.31 -69.2343C280.477 -61.0887 286.955 -51.4186 291.375 -40.7765C295.794 -30.1345 298.069 -18.7275 298.069 -7.2082C298.069 4.31107 295.794 15.7181 291.375 26.3601C286.955 37.0022 280.477 46.6724 272.31 54.8179C264.143 62.9635 254.448 69.4249 243.778 73.8337C233.108 78.2424 221.671 80.5108 210.122 80.5108Z" fill="#FFD726"/>
<path d="M315.183 80.9861C315.183 69.4356 317.451 57.9977 321.859 47.3268C326.267 36.6559 332.727 26.9595 340.872 18.7918C349.017 10.6242 358.686 4.14528 369.327 -0.275428C379.968 -4.69614 391.374 -6.9707 402.892 -6.9707C414.41 -6.9707 425.816 -4.69614 436.457 -0.275428C447.097 4.14528 456.766 10.6242 464.911 18.7918C473.056 26.9595 479.517 36.6559 483.925 47.3268C488.333 57.9977 490.601 69.4356 490.601 80.9861H315.183Z" fill="#F45B0F"/>
<path d="M684.085 98.5776C684.085 110.128 681.816 121.566 677.408 132.237C673 142.909 666.539 152.605 658.395 160.772C650.25 168.94 640.581 175.419 629.94 179.839C619.299 184.259 607.893 186.534 596.375 186.534C584.857 186.534 573.452 184.259 562.811 179.839C552.17 175.419 542.501 168.94 534.356 160.772C526.211 152.605 519.751 142.909 515.342 132.237C510.934 121.566 508.666 110.128 508.666 98.5776H684.085Z" fill="#F45B0F"/>
<path d="M535.051 186.059C559.336 186.059 579.024 205.749 579.024 230.037V274.016H491.077V230.037C491.077 205.749 510.765 186.059 535.051 186.059Z" fill="#E6E6E6"/>
<path d="M438.071 204.126C457.369 204.126 473.013 219.771 473.013 239.071C473.013 258.371 457.369 274.016 438.071 274.016C418.774 274.016 403.13 258.371 403.13 239.071C403.13 219.771 418.774 204.126 438.071 204.126Z" fill="#F45B0F"/>
<path d="M245.063 99.0532C264.361 99.0532 280.004 114.699 280.004 133.998C280.004 153.298 264.361 168.943 245.063 168.943C225.766 168.943 210.122 153.298 210.122 133.998C210.122 114.699 225.766 99.0532 245.063 99.0532Z" fill="#E6E6E6"/>
<path d="M631.554 11.0962C650.851 11.0962 666.495 26.7416 666.495 46.0412C666.495 65.3408 650.851 80.9862 631.554 80.9862C612.256 80.9862 596.613 65.3408 596.613 46.0412C596.613 26.7416 612.256 11.0962 631.554 11.0962Z" fill="#94C0D4"/>
<path d="M280.955 592.562C280.955 604.113 278.681 615.55 274.26 626.222C269.84 636.893 263.362 646.589 255.195 654.757C247.028 662.924 237.333 669.403 226.663 673.824C215.994 678.244 204.557 680.519 193.008 680.519V592.562H280.955Z" fill="#94C0D4"/>
<path d="M561.91 698.11C556.167 698.11 550.479 696.973 545.173 694.762C539.867 692.552 535.046 689.313 530.984 685.229C526.923 681.145 523.701 676.297 521.503 670.961C519.306 665.626 518.174 659.907 518.174 654.132C518.174 648.356 519.306 642.638 521.503 637.302C523.701 631.966 526.923 627.118 530.984 623.034C535.046 618.951 539.867 615.711 545.173 613.501C550.479 611.291 556.167 610.153 561.91 610.153V698.11Z" fill="#FFD726"/>
<path d="M368.902 381.941C363.159 381.941 357.472 380.803 352.165 378.594C346.859 376.384 342.038 373.144 337.976 369.061C333.915 364.976 330.693 360.128 328.496 354.792C326.298 349.457 325.167 343.738 325.167 337.963C325.167 332.188 326.298 326.469 328.496 321.133C330.693 315.798 333.915 310.95 337.976 306.865C342.038 302.782 346.859 299.541 352.165 297.332C357.472 295.123 363.159 293.984 368.902 293.984V381.941Z" fill="#161616"/>
<path d="M0 680.043C5.74347 680.043 11.4307 681.181 16.737 683.391C22.0432 685.601 26.8646 688.841 30.9259 692.924C34.9872 697.008 38.2086 701.856 40.4066 707.192C42.6046 712.528 43.7358 718.247 43.7358 724.022C43.7358 729.797 42.6046 735.516 40.4066 740.852C38.2086 746.187 34.9872 751.036 30.9259 755.119C26.8646 759.203 22.0432 762.442 16.737 764.653C11.4307 766.863 5.74347 768 0 768V680.043Z" fill="#161616"/>
<path d="M175.894 768C164.344 768 152.908 765.731 142.238 761.323C131.568 756.915 121.873 750.453 113.706 742.308C105.539 734.162 99.0612 724.492 94.6413 713.85C90.2216 703.207 87.9468 691.8 87.9468 680.281C87.9468 668.762 90.2216 657.355 94.6413 646.712C99.0612 636.07 105.539 626.4 113.706 618.254C121.873 610.109 131.568 603.648 142.238 599.239C152.908 594.831 164.344 592.562 175.894 592.562V768Z" fill="#FFD726"/>
<path d="M87.9468 381.466H175.894V469.423C164.344 469.423 152.908 467.148 142.238 462.727C131.568 458.307 121.873 451.828 113.706 443.66C105.539 435.492 99.0612 425.796 94.6413 415.125C90.2216 404.454 87.9468 393.016 87.9468 381.466Z" fill="#F45B0F"/>
<path d="M193.008 293.984C204.557 293.984 215.994 296.253 226.663 300.662C237.333 305.07 247.028 311.532 255.195 319.677C263.362 327.823 269.84 337.493 274.26 348.135C278.681 358.777 280.955 370.184 280.955 381.703C280.955 393.223 278.681 404.63 274.26 415.272C269.84 425.914 263.362 435.584 255.195 443.73C247.028 451.875 237.333 458.337 226.663 462.745C215.994 467.154 204.557 469.423 193.008 469.423V293.984Z" fill="#F45B0F"/>
<path d="M386.492 768C386.492 756.45 388.76 745.012 393.168 734.341C397.576 723.669 404.037 713.973 412.182 705.805C420.326 697.638 429.996 691.159 440.636 686.739C451.277 682.319 462.683 680.043 474.201 680.043C485.719 680.043 497.125 682.319 507.766 686.739C518.406 691.159 528.076 697.638 536.22 705.805C544.365 713.973 550.826 723.669 555.234 734.341C559.642 745.012 561.91 756.45 561.91 768H386.492Z" fill="#94C0D4"/>
<path d="M754.443 508.409C754.443 519.959 752.174 531.397 747.766 542.068C743.358 552.739 736.897 562.435 728.753 570.603C720.608 578.771 710.939 585.25 700.298 589.67C689.657 594.09 678.251 596.365 666.733 596.365C655.215 596.365 643.81 594.09 633.169 589.67C622.528 585.25 612.859 578.771 604.714 570.603C596.569 562.435 590.109 552.739 585.7 542.068C581.292 531.397 579.024 519.959 579.024 508.409H754.443Z" fill="#FFD726"/>
<path d="M579.024 592.562C590.573 592.562 602.01 594.831 612.68 599.239C623.349 603.648 633.045 610.109 641.211 618.254C649.378 626.4 655.856 636.07 660.276 646.712C664.697 657.355 666.971 668.762 666.971 680.281C666.971 691.8 664.697 703.207 660.276 713.85C655.856 724.492 649.378 734.162 641.211 742.308C633.045 750.453 623.349 756.915 612.68 761.323C602.01 765.731 590.573 768 579.024 768V592.562Z" fill="#048ECB"/>
<path d="M491.552 487.013C491.552 475.463 493.82 464.025 498.229 453.354C502.637 442.683 509.098 432.987 517.242 424.819C525.387 416.651 535.056 410.173 545.697 405.752C556.338 401.331 567.744 399.057 579.262 399.057C590.78 399.057 602.185 401.331 612.826 405.752C623.467 410.173 633.136 416.651 641.281 424.819C649.425 432.987 655.886 442.683 660.294 453.354C664.703 464.025 666.971 475.463 666.971 487.013H491.552Z" fill="#F45B0F"/>
<path d="M561.91 293.984C561.91 305.535 559.642 316.973 555.234 327.644C550.826 338.315 544.365 348.011 536.22 356.179C528.076 364.346 518.406 370.825 507.766 375.246C497.125 379.667 485.719 381.941 474.201 381.941C462.683 381.941 451.277 379.667 440.636 375.246C429.996 370.825 420.326 364.346 412.182 356.179C404.037 348.011 397.576 338.315 393.168 327.644C388.76 316.973 386.492 305.535 386.492 293.984H561.91Z" fill="#F45B0F"/>
<path d="M368.902 574.97C357.353 574.97 345.916 572.702 335.247 568.293C324.577 563.884 314.882 557.423 306.715 549.277C298.548 541.132 292.07 531.462 287.65 520.82C283.229 510.178 280.955 498.771 280.955 487.251C280.955 475.732 283.229 464.325 287.65 453.683C292.07 443.041 298.548 433.371 306.715 425.225C314.882 417.08 324.577 410.618 335.247 406.209C345.916 401.801 357.353 399.532 368.902 399.532V574.97Z" fill="#94C0D4"/>
<path d="M0 574.97V399.532C11.5494 399.532 22.9856 401.801 33.6559 406.209C44.3262 410.618 54.0213 417.08 62.188 425.225C70.3546 433.371 76.8328 443.041 81.2525 453.683C85.6722 464.325 87.947 475.732 87.947 487.251C87.947 498.771 85.6722 510.178 81.2525 520.82C76.8328 531.462 70.3546 541.132 62.1878 549.277C54.0213 557.423 44.3262 563.884 33.6559 568.293C22.9856 572.702 11.5494 574.97 0 574.97Z" fill="#F45B0F"/>
<path d="M105.061 574.97C105.061 563.42 107.329 551.982 111.737 541.311C116.145 530.64 122.605 520.944 130.75 512.776C138.895 504.609 148.564 498.13 159.205 493.709C169.846 489.288 181.252 487.014 192.77 487.014C204.288 487.014 215.694 489.288 226.334 493.709C236.975 498.13 246.644 504.609 254.789 512.776C262.934 520.944 269.394 530.64 273.803 541.311C278.211 551.982 280.479 563.42 280.479 574.97H105.061Z" fill="#048ECB"/>
<path d="M473.963 592.562C473.963 604.113 471.695 615.55 467.287 626.222C462.878 636.893 456.418 646.589 448.273 654.757C440.128 662.924 430.459 669.403 419.818 673.824C409.177 678.244 397.772 680.519 386.254 680.519C374.736 680.519 363.33 678.244 352.689 673.824C342.048 669.403 332.379 662.924 324.234 654.757C316.09 646.589 309.629 636.893 305.221 626.222C300.813 615.55 298.544 604.113 298.544 592.562H473.963Z" fill="#F45B0F"/>
<path d="M473.963 487.013H386.016V399.057C397.565 399.057 409.002 401.331 419.672 405.752C430.341 410.173 440.037 416.651 448.203 424.819C456.37 432.987 462.848 442.683 467.269 453.354C471.689 464.025 473.963 475.463 473.963 487.013Z" fill="#94C0D4"/>
<path d="M473.963 504.605H561.91V592.562C550.361 592.562 538.925 590.287 528.255 585.866C517.585 581.446 507.89 574.967 499.723 566.799C491.556 558.632 485.078 548.935 480.658 538.264C476.238 527.593 473.963 516.155 473.963 504.605Z" fill="#FFD726"/>
<path d="M324.929 680.043C349.214 680.043 368.902 699.733 368.902 724.022V768H280.955V724.022C280.955 699.733 300.643 680.043 324.929 680.043Z" fill="#048ECB"/>
<path d="M87.947 337.963C87.947 362.251 68.2594 381.941 43.9735 381.941H0V293.984H43.9735C68.2594 293.984 87.947 313.674 87.947 337.963Z" fill="#048ECB"/>
<path d="M579.024 337.963C579.024 313.674 598.712 293.984 622.997 293.984H666.971V381.941H622.997C598.712 381.941 579.024 362.251 579.024 337.963Z" fill="#FFD726"/>
<path d="M227.949 698.11C247.246 698.11 262.89 713.755 262.89 733.055C262.89 752.355 247.246 768 227.949 768C208.651 768 193.008 752.355 193.008 733.055C193.008 713.755 208.651 698.11 227.949 698.11Z" fill="#E6E6E6"/>
<path d="M34.9411 593.037C54.2385 593.037 69.8822 608.682 69.8822 627.982C69.8822 647.282 54.2385 662.927 34.9411 662.927C15.6437 662.927 0 647.282 0 627.982C0 608.682 15.6437 593.037 34.9411 593.037Z" fill="#048ECB"/>
<path d="M140.002 293.984C159.299 293.984 174.943 309.63 174.943 328.929C174.943 348.229 159.299 363.874 140.002 363.874C120.704 363.874 105.061 348.229 105.061 328.929C105.061 309.63 120.704 293.984 140.002 293.984Z" fill="#161616"/>
<path d="M421.433 505.081C440.73 505.081 456.374 520.726 456.374 540.026C456.374 559.325 440.73 574.971 421.433 574.971C402.135 574.971 386.492 559.325 386.492 540.026C386.492 520.726 402.135 505.081 421.433 505.081Z" fill="#161616"/>
</g>
</svg>
